<svg width="1512" height="125" viewBox="0 0 1512 125" fill="none" xmlns="http://www.w3.org/2000/svg">
<path fill-rule="evenodd" clip-rule="evenodd" d="M1641 -149.5C1641 -93.38 1603.87 -45.9325 1552.83 -30.3851C1544.49 30.276 1492.45 77 1429.5 77C1423.93 77 1418.45 76.6346 1413.08 75.9264C1390.77 97.0469 1360.65 110 1327.5 110C1294.52 110 1264.54 97.1782 1242.26 76.2478C1240.34 76.4595 1238.4 76.6274 1236.45 76.7503C1219.63 85.2266 1200.62 90 1180.5 90C1149.54 90 1121.21 78.6964 1099.43 59.9904C1094.21 60.6566 1088.9 61 1083.5 61C1066.05 61 1049.44 57.41 1034.36 50.9283C1015.01 94.5635 971.309 125 920.5 125C886.871 125 856.357 111.667 833.954 89.9988C807.555 89.8855 783.095 81.5556 763 67.4344C742.767 81.6529 718.108 90 691.5 90C659.854 90 630.966 78.1929 609 58.7435C587.034 78.1929 558.146 90 526.5 90C501.678 90 478.553 82.7361 459.134 70.2181C446.399 74.6132 432.728 77 418.5 77C379.375 77 344.465 58.9527 321.642 30.7288C307.965 28.7643 295.007 24.577 283.145 18.5448C260.326 44.5692 226.832 61 189.5 61C171.419 61 154.239 57.1458 138.735 50.2141C116.001 74.6877 83.5385 90 47.5 90C-5.97818 90 -51.5811 56.2822 -69.2096 8.9458C-136.253 6.98395 -190 -47.9814 -190 -115.5C-190 -184.259 -134.259 -240 -65.5 -240C-12.0218 -240 33.5811 -206.282 51.2096 -158.946C67.9309 -158.456 83.8251 -154.67 98.2646 -148.214C120.999 -172.688 153.461 -188 189.5 -188C209.784 -188 228.934 -183.149 245.855 -174.545C268.674 -200.569 302.168 -217 339.5 -217C378.625 -217 413.535 -198.953 436.358 -170.729C454.204 -168.165 470.826 -161.818 485.387 -152.525C508.068 -183.148 544.466 -203 585.5 -203C613.623 -203 639.568 -193.675 660.412 -177.949C675.474 -184.418 692.069 -188 709.5 -188C743.148 -188 773.679 -174.651 796.086 -152.961C808.184 -156.881 821.095 -159 834.5 -159C868.129 -159 898.643 -145.667 921.046 -123.999C938.297 -123.925 954.719 -120.342 969.636 -113.928C988.99 -157.563 1032.69 -188 1083.5 -188C1114.46 -188 1142.79 -176.696 1164.57 -157.99C1167.21 -158.327 1169.87 -158.581 1172.55 -158.75C1189.37 -167.227 1208.38 -172 1228.5 -172C1261.48 -172 1291.46 -159.178 1313.74 -138.248C1318.26 -138.745 1322.85 -139 1327.5 -139C1333.07 -139 1338.55 -138.635 1343.92 -137.926C1357.73 -150.993 1374.52 -160.934 1393.17 -166.615C1401.51 -227.276 1453.55 -274 1516.5 -274C1585.26 -274 1641 -218.259 1641 -149.5Z" fill="#FAABA7"/>
</svg>
