<svg width="1512" height="191" viewBox="0 0 1512 191" fill="none" xmlns="http://www.w3.org/2000/svg">
<path fill-rule="evenodd" clip-rule="evenodd" d="M1707 124.5C1707 180.62 1669.87 228.067 1618.83 243.615C1610.49 304.276 1558.45 351 1495.5 351C1489.93 351 1484.45 350.634 1479.08 349.926C1456.77 371.047 1426.65 384 1393.5 384C1360.52 384 1330.54 371.178 1308.26 350.248C1306.34 350.46 1304.4 350.627 1302.45 350.75C1285.63 359.227 1266.62 364 1246.5 364C1215.54 364 1187.21 352.696 1165.43 333.99C1160.21 334.656 1154.9 335 1149.5 335C1132.05 335 1115.44 331.41 1100.36 324.928C1081.01 368.563 1037.31 399 986.5 399C952.871 399 922.357 385.667 899.954 363.999C873.555 363.886 849.095 355.556 829 341.434C808.767 355.653 784.108 364 757.5 364C725.854 364 696.966 352.193 675 332.744C653.034 352.193 624.146 364 592.5 364C567.678 364 544.553 356.736 525.134 344.218C512.399 348.613 498.728 351 484.5 351C445.375 351 410.466 332.953 387.642 304.729C373.965 302.765 361.007 298.577 349.145 292.545C326.326 318.569 292.832 335 255.5 335C237.419 335 220.239 331.146 204.735 324.214C182.001 348.688 149.539 364 113.5 364C60.0219 364 14.4188 330.282 -3.20959 282.946C-70.2531 280.984 -124 226.019 -124 158.5C-124 89.7407 -68.2594 34 0.5 34C53.9781 34 99.5811 67.7178 117.21 115.054C133.931 115.543 149.825 119.33 164.265 125.786C186.999 101.312 219.461 86 255.5 86C275.784 86 294.934 90.8506 311.855 99.4551C334.674 73.4307 368.168 57 405.5 57C444.625 57 479.534 75.0469 502.358 103.271C520.204 105.834 536.826 112.182 551.387 121.475C574.068 90.8516 610.466 71 651.5 71C679.623 71 705.568 80.3247 726.412 96.0508C741.474 89.582 758.069 86 775.5 86C809.148 86 839.679 99.3486 862.085 121.039C874.184 117.118 887.095 115 900.5 115C934.129 115 964.643 128.333 987.046 150.001C1004.3 150.075 1020.72 153.658 1035.64 160.072C1054.99 116.437 1098.69 86 1149.5 86C1180.46 86 1208.79 97.3037 1230.57 116.01C1233.21 115.673 1235.87 115.419 1238.55 115.25C1255.37 106.773 1274.38 102 1294.5 102C1327.48 102 1357.46 114.822 1379.74 135.752C1384.26 135.255 1388.85 135 1393.5 135C1399.07 135 1404.55 135.366 1409.92 136.074C1423.73 123.007 1440.52 113.066 1459.17 107.385C1467.51 46.7241 1519.55 0 1582.5 0C1651.26 0 1707 55.7407 1707 124.5Z" fill="#FAABA7"/>
</svg>
