<svg width="132" height="108" viewBox="0 0 132 108" fill="none" xmlns="http://www.w3.org/2000/svg">
<path d="M16.307 90.3938C17.2117 90.8384 17.664 91.3291 17.664 91.8658C17.664 92.1111 17.549 92.4791 17.319 92.9698L10.971 105.85C10.8023 106.187 10.5417 106.463 10.189 106.678C9.85167 106.877 9.499 106.977 9.131 106.977H8.901C8.51767 106.977 8.14967 106.877 7.797 106.678C7.45967 106.463 7.20667 106.187 7.038 105.85L0.69 92.9698C0.46 92.4791 0.345 92.1111 0.345 91.8658C0.345 91.3291 0.797333 90.8384 1.702 90.3938C2.208 90.1331 2.59133 90.0028 2.852 90.0028C3.128 90.0028 3.335 90.0334 3.473 90.0948C3.611 90.1561 3.74133 90.2634 3.864 90.4168C4.002 90.6008 4.12467 90.8078 4.232 91.0378C4.35467 91.2524 4.65367 91.8888 5.129 92.9468C5.60433 93.9894 6.11033 95.1011 6.647 96.2818C7.199 97.4624 7.71267 98.5818 8.188 99.6398C8.67867 100.682 8.95467 101.265 9.016 101.388L13.616 91.3138C13.7387 91.0224 13.846 90.7924 13.938 90.6238C14.214 90.2098 14.5513 90.0028 14.95 90.0028C15.3487 90.0028 15.801 90.1331 16.307 90.3938ZM18.3497 96.9028C18.3497 96.5501 18.3574 96.2894 18.3727 96.1208C18.4034 95.9368 18.4724 95.7298 18.5797 95.4998C18.7944 95.1011 19.3924 94.9018 20.3737 94.9018C21.1097 94.9018 21.631 95.0321 21.9377 95.2928C22.1984 95.5074 22.3364 95.8371 22.3517 96.2818C22.367 96.4351 22.3747 96.6574 22.3747 96.9488V104.999C22.3747 105.351 22.3594 105.62 22.3287 105.804C22.3134 105.972 22.2444 106.172 22.1217 106.402C21.9224 106.8 21.332 107 20.3507 107C19.3847 107 18.7944 106.793 18.5797 106.379C18.4724 106.149 18.4034 105.949 18.3727 105.781C18.3574 105.612 18.3497 105.344 18.3497 104.976V96.9028ZM22.1217 92.6478C22.0144 92.8624 21.815 93.0158 21.5237 93.1078C21.2324 93.1998 20.8414 93.2458 20.3507 93.2458C19.8754 93.2458 19.492 93.1998 19.2007 93.1078C18.9094 93.0158 18.7024 92.8548 18.5797 92.6248C18.4724 92.3948 18.4034 92.1954 18.3727 92.0268C18.3574 91.8428 18.3497 91.5744 18.3497 91.2218C18.3497 90.8691 18.3574 90.6084 18.3727 90.4398C18.4034 90.2558 18.4724 90.0564 18.5797 89.8418C18.7944 89.4278 19.3924 89.2208 20.3737 89.2208C21.3397 89.2208 21.9224 89.4278 22.1217 89.8418C22.2444 90.0718 22.3134 90.2788 22.3287 90.4628C22.3594 90.6314 22.3747 90.8921 22.3747 91.2448C22.3747 91.5974 22.3594 91.8658 22.3287 92.0498C22.3134 92.2184 22.2444 92.4178 22.1217 92.6478ZM32.446 95.0168C32.7373 95.1088 32.975 95.2698 33.159 95.4998C33.3583 95.7144 33.458 96.0671 33.458 96.5578C33.458 97.0484 33.3123 97.5851 33.021 98.1678C32.7297 98.7504 32.308 99.0418 31.756 99.0418C31.48 99.0418 31.2117 98.9804 30.951 98.8578C30.7057 98.7351 30.376 98.6738 29.962 98.6738C29.548 98.6738 29.157 98.8194 28.789 99.1108C28.4363 99.4021 28.26 99.7548 28.26 100.169V104.999C28.26 105.351 28.2447 105.62 28.214 105.804C28.1987 105.972 28.1297 106.172 28.007 106.402C27.777 106.8 27.179 107 26.213 107C25.477 107 24.948 106.869 24.626 106.609C24.3807 106.394 24.2427 106.064 24.212 105.62C24.212 105.466 24.212 105.244 24.212 104.953V96.8798C24.212 96.5271 24.2197 96.2664 24.235 96.0978C24.2657 95.9138 24.3347 95.7144 24.442 95.4998C24.6567 95.0858 25.2547 94.8788 26.236 94.8788C27.156 94.8788 27.731 95.0551 27.961 95.4078C28.1297 95.6531 28.214 95.9061 28.214 96.1668C28.2907 96.0594 28.398 95.9291 28.536 95.7758C28.6893 95.6224 29.0037 95.4154 29.479 95.1548C29.9543 94.8941 30.3683 94.7638 30.721 94.7638C31.089 94.7638 31.3957 94.7868 31.641 94.8328C31.8863 94.8634 32.1547 94.9248 32.446 95.0168ZM41.7617 98.9498L40.2667 98.8578V102.032C40.2667 102.446 40.328 102.745 40.4507 102.929C40.5887 103.113 40.834 103.205 41.1867 103.205C41.5547 103.205 41.8307 103.22 42.0147 103.251C42.214 103.266 42.421 103.335 42.6357 103.458C42.9884 103.657 43.1647 104.171 43.1647 104.999C43.1647 105.965 42.95 106.555 42.5207 106.77C42.2907 106.877 42.0837 106.946 41.8997 106.977C41.731 106.992 41.478 107 41.1407 107C39.546 107 38.3347 106.639 37.5067 105.919C36.6787 105.198 36.2647 103.979 36.2647 102.262V98.8578C35.9734 98.9038 35.659 98.9268 35.3217 98.9268C34.9844 98.9268 34.7007 98.7964 34.4707 98.5358C34.256 98.2751 34.1487 97.8304 34.1487 97.2018C34.1487 96.5731 34.187 96.1208 34.2637 95.8448C34.3404 95.5534 34.4477 95.3464 34.5857 95.2238C34.831 95.0244 35.1377 94.9248 35.5057 94.9248L36.2647 95.0168V92.6478C36.2647 92.2951 36.2724 92.0344 36.2877 91.8658C36.3184 91.6971 36.395 91.5131 36.5177 91.3138C36.717 90.9304 37.3074 90.7388 38.2887 90.7388C39.3314 90.7388 39.9524 91.0224 40.1517 91.5898C40.2284 91.8351 40.2667 92.2261 40.2667 92.7628V95.0168C40.9414 94.9554 41.4474 94.9248 41.7847 94.9248C42.1374 94.9248 42.398 94.9401 42.5667 94.9708C42.7507 94.9861 42.9577 95.0551 43.1877 95.1778C43.5864 95.3771 43.7857 95.9674 43.7857 96.9488C43.7857 97.9148 43.5787 98.5051 43.1647 98.7198C42.9347 98.8271 42.7277 98.8961 42.5437 98.9268C42.375 98.9421 42.1144 98.9498 41.7617 98.9498ZM50.4377 106.954C48.8891 106.954 47.6011 106.371 46.5737 105.206C45.5617 104.025 45.0557 102.591 45.0557 100.905V96.8798C45.0557 96.5118 45.0634 96.2434 45.0787 96.0748C45.1094 95.9061 45.1784 95.7068 45.2857 95.4768C45.5004 95.0628 46.0984 94.8558 47.0797 94.8558C48.1531 94.8558 48.7817 95.1471 48.9657 95.7298C49.0577 95.9751 49.1037 96.3661 49.1037 96.9028V100.928C49.1037 101.556 49.2801 102.047 49.6327 102.4C50.0007 102.752 50.4837 102.929 51.0817 102.929C51.6951 102.929 52.1857 102.745 52.5537 102.377C52.9371 102.009 53.1287 101.526 53.1287 100.928V96.8568C53.1287 96.5041 53.1364 96.2434 53.1517 96.0748C53.1824 95.8908 53.2591 95.6838 53.3817 95.4538C53.5811 95.0551 54.1714 94.8558 55.1527 94.8558C56.1187 94.8558 56.7091 95.0628 56.9237 95.4768C57.0311 95.7068 57.0924 95.9138 57.1077 96.0978C57.1384 96.2664 57.1537 96.5271 57.1537 96.8798V105.022C57.1537 105.359 57.1384 105.62 57.1077 105.804C57.0924 105.972 57.0234 106.164 56.9007 106.379C56.6707 106.777 56.0804 106.977 55.1297 106.977C54.1944 106.977 53.6194 106.793 53.4047 106.425C53.2514 106.164 53.1747 105.85 53.1747 105.482C53.1134 105.589 52.9754 105.742 52.7607 105.942C52.5461 106.141 52.3391 106.31 52.1397 106.448C51.6184 106.785 51.0511 106.954 50.4377 106.954ZM74.506 94.9708C75.4873 95.4001 75.978 95.9291 75.978 96.5578C75.978 96.8184 75.8553 97.2401 75.61 97.8228C75.3647 98.3901 75.1577 98.8884 74.989 99.3178L72.459 105.482C72.229 106.156 71.8457 106.632 71.309 106.908C71.079 107.015 70.7877 107.069 70.435 107.069C70.0823 107.069 69.7373 106.938 69.4 106.678C69.078 106.402 68.8633 106.126 68.756 105.85L68.572 105.459C68.4493 105.152 67.997 103.956 67.215 101.871C67.0617 102.239 66.8317 102.844 66.525 103.688C66.2337 104.516 66.042 105.037 65.95 105.252C65.8733 105.451 65.8197 105.589 65.789 105.666C65.7737 105.727 65.7123 105.85 65.605 106.034C65.4977 106.218 65.375 106.379 65.237 106.517C64.869 106.885 64.4473 107.069 63.972 107.069C63.4967 107.069 63.098 106.938 62.776 106.678C62.454 106.402 62.2393 106.126 62.132 105.85L58.659 97.3858C58.5057 96.9258 58.429 96.6268 58.429 96.4888C58.429 95.8754 58.866 95.3924 59.74 95.0398C60.2307 94.8404 60.6293 94.7408 60.936 94.7408C61.2427 94.7408 61.488 94.8098 61.672 94.9478C61.8713 95.0704 62.0093 95.2008 62.086 95.3388C62.1627 95.4614 62.224 95.5918 62.27 95.7298C62.5307 96.3431 63.075 97.7844 63.903 100.054L65.26 96.3278C65.352 96.0211 65.5207 95.7528 65.766 95.5228C66.2107 95.0781 66.663 94.8558 67.123 94.8558C67.583 94.8558 67.974 94.9784 68.296 95.2238C68.6333 95.4691 68.8633 95.7144 68.986 95.9598L69.17 96.3508C69.9367 98.4974 70.389 99.7241 70.527 100.031L71.93 96.2128C72.298 95.2314 72.85 94.7408 73.586 94.7408C73.8773 94.7408 74.184 94.8174 74.506 94.9708ZM76.448 100.951C76.448 99.1108 77.092 97.5928 78.38 96.3968C79.668 95.2008 81.14 94.6028 82.796 94.6028C84.452 94.6028 85.9164 95.2008 87.189 96.3968C88.4617 97.5774 89.098 99.0878 89.098 100.928C89.098 102.2 88.7684 103.335 88.109 104.332C87.4497 105.313 86.6447 106.041 85.694 106.517C84.7587 106.977 83.785 107.207 82.773 107.207C81.761 107.207 80.7797 106.961 79.829 106.471C78.8784 105.965 78.0734 105.229 77.414 104.263C76.77 103.281 76.448 102.177 76.448 100.951ZM81.255 102.607C81.7457 102.975 82.244 103.159 82.75 103.159C83.256 103.159 83.762 102.967 84.268 102.584C84.774 102.2 85.027 101.633 85.027 100.882C85.027 100.13 84.7894 99.5708 84.314 99.2028C83.8387 98.8348 83.325 98.6508 82.773 98.6508C82.221 98.6508 81.7074 98.8424 81.232 99.2258C80.7567 99.6091 80.519 100.176 80.519 100.928C80.519 101.664 80.7644 102.223 81.255 102.607ZM90.2391 100.951C90.2391 99.1108 90.8831 97.5928 92.1711 96.3968C93.4591 95.2008 94.9311 94.6028 96.5871 94.6028C98.2431 94.6028 99.7074 95.2008 100.98 96.3968C102.253 97.5774 102.889 99.0878 102.889 100.928C102.889 102.2 102.559 103.335 101.9 104.332C101.241 105.313 100.436 106.041 99.4851 106.517C98.5497 106.977 97.5761 107.207 96.5641 107.207C95.5521 107.207 94.5707 106.961 93.6201 106.471C92.6694 105.965 91.8644 105.229 91.2051 104.263C90.5611 103.281 90.2391 102.177 90.2391 100.951ZM95.0461 102.607C95.5367 102.975 96.0351 103.159 96.5411 103.159C97.0471 103.159 97.5531 102.967 98.0591 102.584C98.5651 102.2 98.8181 101.633 98.8181 100.882C98.8181 100.13 98.5804 99.5708 98.1051 99.2028C97.6297 98.8348 97.1161 98.6508 96.5641 98.6508C96.0121 98.6508 95.4984 98.8424 95.0231 99.2258C94.5477 99.6091 94.3101 100.176 94.3101 100.928C94.3101 101.664 94.5554 102.223 95.0461 102.607ZM111.01 94.9018C112.068 94.9018 112.689 95.1931 112.873 95.7758C112.965 96.0671 113.011 96.4504 113.011 96.9258C113.011 97.4011 112.957 97.7844 112.85 98.0758C112.758 98.3518 112.605 98.5511 112.39 98.6738C112.068 98.8578 111.6 98.9498 110.987 98.9498L109.515 98.8578V105.022C109.515 105.604 109.438 106.041 109.285 106.333C109.147 106.609 108.925 106.793 108.618 106.885C108.327 106.977 107.943 107.023 107.468 107.023C106.993 107.023 106.609 106.977 106.318 106.885C106.042 106.777 105.843 106.616 105.72 106.402C105.597 106.172 105.521 105.965 105.49 105.781C105.475 105.597 105.467 105.328 105.467 104.976V98.8808H104.639C104.24 98.8501 103.957 98.7581 103.788 98.6048C103.497 98.3134 103.351 97.7538 103.351 96.9258C103.351 95.6684 103.803 95.0398 104.708 95.0398H105.467V93.8208C105.467 92.6401 105.889 91.5744 106.732 90.6238C107.575 89.6578 108.794 89.1748 110.389 89.1748C110.742 89.1748 111.002 89.1901 111.171 89.2208C111.355 89.2361 111.562 89.3051 111.792 89.4278C112.206 89.6271 112.413 90.2174 112.413 91.1988C112.413 91.9348 112.283 92.4638 112.022 92.7858C111.807 93.0311 111.47 93.1691 111.01 93.1998C110.872 93.1998 110.657 93.1998 110.366 93.1998C109.799 93.1998 109.515 93.3914 109.515 93.7748V95.0398L111.01 94.9018Z" fill="#FAABA7"/>
<ellipse cx="52.2353" cy="62.939" rx="26.4506" ry="20.337" transform="rotate(32.7614 52.2353 62.939)" fill="#FAABA7"/>
<ellipse cx="50.9267" cy="22.7798" rx="8.35938" ry="12.9758" transform="rotate(32.7614 50.9267 22.7798)" fill="#FAABA7"/>
<ellipse cx="73.9091" cy="27.1831" rx="8.35938" ry="12.9758" transform="rotate(32.7614 73.9091 27.1831)" fill="#FAABA7"/>
<ellipse cx="87.574" cy="46.0655" rx="8.35938" ry="12.9758" transform="rotate(32.7614 87.574 46.0655)" fill="#FAABA7"/>
</svg>
